<svg width="190" height="76" viewBox="0 0 190 76" fill="none" xmlns="http://www.w3.org/2000/svg">
<path d="M26.8421 10C28.0184 11.2676 28.7935 12.7962 29.2386 14.447C29.9614 17.1286 29.9153 20.133 29.6721 23.197C29.1854 29.3253 27.9729 35.7753 29.3878 39.778C30.7159 43.535 32.8455 45.7665 35.2081 46.8636C36.2244 47.3357 37.2944 47.597 38.3766 47.6645C40.9634 39.9786 40.4115 30.1698 36.1552 23.5402C41.7905 29.2362 44.4522 37.8374 42.7327 46.8525L41.7094 47.2694C42.0289 47.1727 42.3437 47.0607 42.6526 46.9336C47.5223 44.9414 51.5073 39.1096 49.8494 30.5595C49.0877 26.6311 46.4735 21.0926 42.099 16.8017C38.3145 13.0898 33.2617 10.2813 26.8421 10ZM59.9378 31.6739C59.8399 33.1028 59.3973 34.4524 58.7071 35.6781C57.5005 37.8203 55.6246 39.6645 53.5934 41.4166C49.531 44.9204 44.8457 48.1663 43.3008 51.4802C41.8375 54.6195 41.7992 57.2965 42.5798 59.4258C42.9132 60.3371 43.4123 61.177 44.0512 61.902C50.3107 58.7387 55.9076 52.3471 57.3155 45.6017C57.3244 52.6454 53.7456 59.6177 47.2197 64.1311C51.3923 65.8488 57.2756 64.7256 61.4058 58.4922C63.3193 55.6041 65.0839 50.5446 64.9969 45.1625C64.923 40.5937 63.5675 35.8056 59.9378 31.6739ZM10.4197 40.3502C9.31452 45.7681 10.5023 50.6044 12.6924 54.5988C15.2723 59.3036 19.2986 62.7916 22.3804 64.3229C29.0318 67.6281 34.6779 65.6182 37.4442 62.0166C29.5668 61.4143 23.0282 57.1898 19.5616 51.0855C24.1093 56.2141 32.1089 58.9139 39.0906 58.4811C39.2869 57.5299 39.3055 56.5498 39.1454 55.5916C38.7708 53.352 37.4123 51.0513 34.5963 49.0743C31.6237 46.9876 25.9665 46.5518 20.7198 45.5758C18.0965 45.0881 15.5629 44.4433 13.4612 43.1993C12.258 42.4872 11.2099 41.5388 10.4197 40.3502Z" fill="url(#paint0_linear_188_326)"/>
<path d="M99.082 51.4727C99.043 51.7331 98.9258 51.9414 98.7305 52.0977C98.5352 52.2669 98.3073 52.3516 98.0469 52.3516H98.0078C94.5052 52.1172 91.0872 52 87.7539 52C84.3685 52 81.1068 52.1172 77.9688 52.3516H77.8711C77.5716 52.3255 77.3242 52.2214 77.1289 52.0391C76.9336 51.8568 76.8359 51.6159 76.8359 51.3164C76.8359 51.056 76.9271 50.8346 77.1094 50.6523C77.2917 50.457 77.5195 50.3464 77.793 50.3203C78.2096 50.2812 78.6263 50.2552 79.043 50.2422C79.4727 50.2161 79.8958 50.1901 80.3125 50.1641V26.3555C79.8958 26.3294 79.4792 26.3164 79.0625 26.3164C78.6589 26.3164 78.2487 26.3164 77.832 26.3164C77.5586 26.2904 77.3242 26.1862 77.1289 26.0039C76.9336 25.8086 76.8359 25.5677 76.8359 25.2812C76.8359 24.9948 76.9401 24.7539 77.1484 24.5586C77.3568 24.3503 77.5977 24.2461 77.8711 24.2461C78.3659 24.2721 78.8411 24.2852 79.2969 24.2852C79.7656 24.2852 80.2279 24.2852 80.6836 24.2852C83.457 24.2852 86.2044 24.194 88.9258 24.0117C91.6471 23.8294 94.362 23.556 97.0703 23.1914H97.2461C97.5065 23.1914 97.7279 23.2826 97.9102 23.4648C98.0924 23.6341 98.2031 23.8359 98.2422 24.0703L99.082 30.6719V30.8086C99.082 31.1081 98.9714 31.349 98.75 31.5312C98.5417 31.7135 98.3073 31.8047 98.0469 31.8047C97.7995 31.8047 97.5781 31.7266 97.3828 31.5703C97.2005 31.401 97.0833 31.1862 97.0312 30.9258L96.3281 25.3594C94.8177 25.5677 93.3008 25.737 91.7773 25.8672C90.2669 25.9844 88.7435 26.082 87.207 26.1602V39.0312C87.5195 39.0182 87.9362 38.9987 88.457 38.9727C88.9779 38.9466 89.5378 38.9076 90.1367 38.8555C90.7487 38.8034 91.3672 38.7448 91.9922 38.6797C92.6302 38.6016 93.2227 38.5104 93.7695 38.4062H93.9648C94.2383 38.4062 94.4792 38.5104 94.6875 38.7188C94.8958 38.9141 95 39.1419 95 39.4023C95 39.6628 94.9219 39.8841 94.7656 40.0664C94.6094 40.2487 94.4076 40.3724 94.1602 40.4375C93.5612 40.5547 92.9167 40.6523 92.2266 40.7305C91.5495 40.8086 90.8854 40.8737 90.2344 40.9258C89.5964 40.9648 89.0104 40.9974 88.4766 41.0234C87.9427 41.0495 87.5195 41.069 87.207 41.082V49.9688H87.7539C89.3034 49.9688 90.8594 49.9883 92.4219 50.0273C93.9974 50.0664 95.5794 50.138 97.168 50.2422L97.8711 45.0078C97.9232 44.7474 98.0404 44.5391 98.2227 44.3828C98.418 44.2135 98.6393 44.1289 98.8867 44.1289C99.1992 44.1289 99.4466 44.2396 99.6289 44.4609C99.8242 44.6823 99.9219 44.9036 99.9219 45.125V45.2812L99.082 51.4727ZM140.293 24.4805C140.293 24.7279 140.208 24.9492 140.039 25.1445C139.883 25.3268 139.688 25.4375 139.453 25.4766C138.828 25.6198 138.203 25.737 137.578 25.8281C136.966 25.9193 136.335 25.9779 135.684 26.0039C135.319 28.7122 134.954 31.1146 134.59 33.2109C134.238 35.3073 133.874 37.1888 133.496 38.8555C133.118 40.5091 132.728 41.987 132.324 43.2891C131.921 44.5911 131.491 45.8021 131.035 46.9219C130.592 48.0417 130.117 49.1159 129.609 50.1445C129.115 51.1602 128.581 52.2083 128.008 53.2891C127.93 53.4323 127.812 53.5495 127.656 53.6406C127.513 53.7448 127.35 53.7969 127.168 53.7969C126.764 53.7969 126.458 53.6536 126.25 53.3672C125.443 52.1953 124.714 51.0234 124.062 49.8516C123.411 48.6797 122.826 47.5534 122.305 46.4727C121.797 45.3789 121.348 44.3503 120.957 43.3867C120.566 42.4102 120.234 41.5378 119.961 40.7695C119.18 43.0352 118.366 45.1641 117.52 47.1562C116.673 49.1354 115.729 51.056 114.688 52.918C114.609 53.0742 114.486 53.2044 114.316 53.3086C114.16 53.4258 113.991 53.4844 113.809 53.4844C113.431 53.4844 113.138 53.3086 112.93 52.957C111.797 51.1211 110.801 49.2591 109.941 47.3711C109.082 45.4701 108.333 43.6146 107.695 41.8047C107.07 39.9948 106.536 38.263 106.094 36.6094C105.651 34.9427 105.286 33.4193 105 32.0391C104.727 30.6589 104.512 29.4544 104.355 28.4258C104.212 27.3971 104.108 26.6029 104.043 26.043C103.717 26.0169 103.398 25.9909 103.086 25.9648C102.773 25.9388 102.467 25.9128 102.168 25.8867C101.908 25.8477 101.686 25.7305 101.504 25.5352C101.335 25.3268 101.25 25.0924 101.25 24.832C101.289 24.5195 101.406 24.2786 101.602 24.1094C101.797 23.9271 102.025 23.8359 102.285 23.8359H102.363C103.848 23.9922 105.371 24.0703 106.934 24.0703C108.184 24.0703 109.427 24.0247 110.664 23.9336C111.914 23.8294 113.125 23.6797 114.297 23.4844H114.453C114.753 23.4844 115 23.5885 115.195 23.7969C115.391 23.9922 115.488 24.2201 115.488 24.4805C115.488 24.7409 115.404 24.9688 115.234 25.1641C115.078 25.3594 114.87 25.4766 114.609 25.5156C114.023 25.5938 113.431 25.6719 112.832 25.75C112.246 25.8281 111.641 25.8997 111.016 25.9648C111.068 26.4466 111.146 27.0846 111.25 27.8789C111.367 28.6602 111.517 29.5521 111.699 30.5547C111.882 31.5443 112.103 32.625 112.363 33.7969C112.637 34.9557 112.956 36.1602 113.32 37.4102C113.698 38.6471 114.121 39.9102 114.59 41.1992C115.072 42.4753 115.612 43.7318 116.211 44.9688C116.823 43.5234 117.396 42.0586 117.93 40.5742C118.477 39.0768 118.958 37.5729 119.375 36.0625C119.792 34.5521 120.143 33.0417 120.43 31.5312C120.716 30.0078 120.911 28.4844 121.016 26.9609C121.042 26.7005 121.139 26.4857 121.309 26.3164C121.491 26.1341 121.712 26.0299 121.973 26.0039C122.233 26.0039 122.461 26.082 122.656 26.2383C122.852 26.3945 122.982 26.5964 123.047 26.8438C123.32 28.3542 123.652 29.8646 124.043 31.375C124.434 32.8724 124.889 34.3958 125.41 35.9453C125.944 37.4818 126.543 39.0443 127.207 40.6328C127.871 42.2214 128.607 43.849 129.414 45.5156C129.805 44.513 130.176 43.4062 130.527 42.1953C130.892 40.9844 131.243 39.6042 131.582 38.0547C131.921 36.5052 132.259 34.7474 132.598 32.7812C132.936 30.8151 133.275 28.569 133.613 26.043C133.027 26.0169 132.441 25.9779 131.855 25.9258C131.283 25.8607 130.69 25.776 130.078 25.6719C129.844 25.6328 129.642 25.5221 129.473 25.3398C129.316 25.1445 129.238 24.9232 129.238 24.6758C129.238 24.3372 129.349 24.0833 129.57 23.9141C129.805 23.7318 130.033 23.6406 130.254 23.6406H130.449C131.751 23.875 133.06 23.9922 134.375 23.9922C135.156 23.9922 135.931 23.9531 136.699 23.875C137.467 23.7969 138.236 23.6667 139.004 23.4844H139.238C139.525 23.4844 139.772 23.5885 139.98 23.7969C140.189 23.9922 140.293 24.2201 140.293 24.4805ZM164.824 31.3555C164.824 31.3945 164.831 31.4466 164.844 31.5117C164.857 31.5638 164.863 31.6224 164.863 31.6875C164.863 31.9609 164.753 32.2018 164.531 32.4102C164.323 32.6185 164.089 32.7227 163.828 32.7227C163.62 32.7227 163.424 32.6576 163.242 32.5273C163.073 32.3971 162.949 32.2214 162.871 32C162.702 31.5052 162.539 30.9779 162.383 30.418C162.227 29.8451 162.083 29.2852 161.953 28.7383C161.836 28.1914 161.725 27.6771 161.621 27.1953C161.517 26.7135 161.439 26.3034 161.387 25.9648C160.645 26.0039 159.798 26.0365 158.848 26.0625C157.897 26.0755 156.875 26.082 155.781 26.082L155.137 50.2031C156.204 50.2422 157.233 50.3203 158.223 50.4375C158.509 50.4635 158.73 50.5742 158.887 50.7695C159.056 50.9518 159.141 51.1732 159.141 51.4336C159.141 51.7591 159.03 52.013 158.809 52.1953C158.6 52.3906 158.379 52.4883 158.145 52.4883H158.027C156.973 52.3581 155.931 52.2669 154.902 52.2148C153.874 52.1758 152.845 52.1562 151.816 52.1562C150.775 52.1562 149.753 52.1758 148.75 52.2148C147.747 52.2669 146.745 52.3581 145.742 52.4883H145.625C145.339 52.4883 145.091 52.3776 144.883 52.1562C144.688 51.9349 144.59 51.694 144.59 51.4336C144.59 51.1732 144.674 50.9518 144.844 50.7695C145.026 50.5742 145.247 50.4635 145.508 50.4375C146.51 50.3203 147.493 50.2422 148.457 50.2031L148.906 25.9648C147.799 25.9258 146.758 25.8802 145.781 25.8281C144.818 25.763 143.952 25.6979 143.184 25.6328C143.105 25.9844 143.008 26.4141 142.891 26.9219C142.786 27.4297 142.663 27.9701 142.52 28.543C142.389 29.1159 142.253 29.7018 142.109 30.3008C141.966 30.8867 141.816 31.4401 141.66 31.9609C141.595 32.1823 141.471 32.3646 141.289 32.5078C141.12 32.651 140.924 32.7227 140.703 32.7227C140.404 32.7227 140.156 32.6185 139.961 32.4102C139.766 32.1888 139.668 31.9479 139.668 31.6875C139.668 31.6484 139.668 31.6029 139.668 31.5508C139.668 31.4857 139.681 31.4336 139.707 31.3945C139.902 30.7044 140.098 29.9492 140.293 29.1289C140.488 28.3086 140.664 27.5404 140.82 26.8242C140.99 26.1081 141.126 25.5091 141.23 25.0273C141.335 24.5456 141.387 24.2982 141.387 24.2852C141.452 24.0378 141.569 23.8424 141.738 23.6992C141.921 23.556 142.135 23.4844 142.383 23.4844H142.539C143.216 23.5755 144.036 23.6536 145 23.7188C145.977 23.7839 147.025 23.8424 148.145 23.8945C149.277 23.9336 150.449 23.9661 151.66 23.9922C152.871 24.0182 154.056 24.0312 155.215 24.0312C156.634 24.0312 157.943 24.0182 159.141 23.9922C160.339 23.9531 161.341 23.901 162.148 23.8359H162.227C162.461 23.8359 162.676 23.9206 162.871 24.0898C163.066 24.2461 163.184 24.4414 163.223 24.6758C163.223 24.6888 163.242 24.7995 163.281 25.0078C163.32 25.2161 163.372 25.4961 163.438 25.8477C163.503 26.1992 163.581 26.6029 163.672 27.0586C163.776 27.5143 163.887 27.9896 164.004 28.4844C164.121 28.9661 164.245 29.4609 164.375 29.9688C164.518 30.4635 164.668 30.9258 164.824 31.3555Z" fill="black"/>
<defs>
<linearGradient id="paint0_linear_188_326" x1="-2" y1="18.5" x2="129.5" y2="95" gradientUnits="userSpaceOnUse">
<stop offset="0.190301" stop-color="#4FA678"/>
<stop offset="0.584209" stop-color="#0F281B" stop-opacity="0"/>
</linearGradient>
</defs>
</svg>
