<svg width="1096" height="688" viewBox="0 0 1096 688" fill="none" xmlns="http://www.w3.org/2000/svg">
<g filter="url(#filter0_f_5_7)">
<path d="M863.849 478.238C889.638 447.624 900.183 414.104 894.504 380.792C888.824 347.481 867.105 315.459 831.365 287.704C795.625 259.95 747.024 237.362 690.079 222.042C633.135 206.721 569.695 199.165 505.656 200.075C441.618 200.986 379.06 210.333 323.797 227.248C268.534 244.164 222.359 268.099 189.565 296.828C156.771 325.557 138.422 358.148 136.224 391.571C134.025 424.995 148.049 458.166 176.991 488.002H515.714L863.849 478.238Z" fill="url(#paint0_radial_5_7)" fill-opacity="0.3"/>
<path d="M863.849 478.238C889.638 447.624 900.183 414.104 894.504 380.792C888.824 347.481 867.105 315.459 831.365 287.704C795.625 259.95 747.024 237.362 690.079 222.042C633.135 206.721 569.695 199.165 505.656 200.075C441.618 200.986 379.06 210.333 323.797 227.248C268.534 244.164 222.359 268.099 189.565 296.828C156.771 325.557 138.422 358.148 136.224 391.571C134.025 424.995 148.049 458.166 176.991 488.002H515.714L863.849 478.238Z" fill="url(#paint1_linear_5_7)" fill-opacity="0.3"/>
</g>
<defs>
<filter id="filter0_f_5_7" x="-64" y="0.00170898" width="1160" height="688" filterUnits="userSpaceOnUse" color-interpolation-filters="sRGB">
<feFlood flood-opacity="0" result="BackgroundImageFix"/>
<feBlend mode="normal" in="SourceGraphic" in2="BackgroundImageFix" result="shape"/>
<feGaussianBlur stdDeviation="100" result="effect1_foregroundBlur_5_7"/>
</filter>
<radialGradient id="paint0_radial_5_7" cx="0" cy="0" r="1" gradientUnits="userSpaceOnUse" gradientTransform="translate(461.143 322.627) rotate(78.6838) scale(279.564 559.139)">
<stop stop-color="#621ABE"/>
<stop offset="1" stop-color="#24214B" stop-opacity="0"/>
</radialGradient>
<linearGradient id="paint1_linear_5_7" x1="764.857" y1="409.002" x2="230.099" y2="398.675" gradientUnits="userSpaceOnUse">
<stop stop-color="#FF54CF" stop-opacity="0.62"/>
<stop offset="0.568187" stop-color="white" stop-opacity="0.540083"/>
<stop offset="1" stop-opacity="0"/>
</linearGradient>
</defs>
</svg>
